<svg xmlns="http://www.w3.org/2000/svg" width="680" viewBox="0 0 680 720" style="background:#0d0d0d;border-radius:8px;font-family:system-ui,sans-serif">
<defs>
<marker id="arrow" viewBox="0 0 10 10" refX="8" refY="5" markerWidth="6" markerHeight="6" orient="auto-start-reverse">
<path d="M2 1L8 5L2 9" fill="none" stroke="context-stroke" stroke-width="1.5" stroke-linecap="round" stroke-linejoin="round"/>
</marker>
</defs>

<!-- ── app.py container ─────────────────────────────────── -->
<rect x="20" y="20" width="380" height="455" rx="12" fill="#0f2a26" stroke="#1D9E75" stroke-width="0.5"/>
<text x="36" y="44" font-size="12" font-weight="600" fill="#5DCAA5" letter-spacing="0.05em">app.py</text>

<!-- Row 0: entry point -->
<rect x="80" y="54" width="240" height="34" rx="6" fill="#085041" stroke="#1D9E75" stroke-width="1"/>
<text x="200" y="75" font-size="12" font-weight="500" fill="#9FE1CB" text-anchor="middle">app entry point</text>

<!-- Row 1: build_html + build_markdown_report -->
<rect x="40"  y="124" width="150" height="32" rx="6" fill="#085041" stroke="#1D9E75" stroke-width="0.5"/>
<text x="115" y="144" font-size="13" font-weight="500" fill="#9FE1CB" text-anchor="middle">build_html</text>
<rect x="206" y="124" width="168" height="32" rx="5" fill="#1a1a1a" stroke="#444" stroke-width="0.5"/>
<text x="290" y="144" font-size="11" fill="#aaa" text-anchor="middle">build_markdown_report</text>

<!-- Row 2: sub-builders (brief, resourcing, epics, metrics, reestimate) -->
<rect x="26"  y="194" width="96"  height="28" rx="4" fill="#1a1a1a" stroke="#444" stroke-width="0.5"/>
<text x="74"  y="212" font-size="9"  fill="#aaa" text-anchor="middle">_build_brief_panel</text>

<rect x="130" y="194" width="108" height="28" rx="4" fill="#1a1a1a" stroke="#444" stroke-width="0.5"/>
<text x="184" y="212" font-size="9"  fill="#aaa" text-anchor="middle">_build_resourcing_html</text>

<rect x="246" y="194" width="90"  height="28" rx="4" fill="#1a1a1a" stroke="#444" stroke-width="0.5"/>
<text x="291" y="212" font-size="9"  fill="#aaa" text-anchor="middle">_build_epics_html</text>

<rect x="28"  y="232" width="96"  height="28" rx="4" fill="#1a1a1a" stroke="#444" stroke-width="0.5"/>
<text x="76"  y="250" font-size="9"  fill="#aaa" text-anchor="middle">_build_metrics_html</text>

<rect x="248" y="232" width="110" height="28" rx="4" fill="#1a1a1a" stroke="#444" stroke-width="0.5"/>
<text x="303" y="250" font-size="9"  fill="#aaa" text-anchor="middle">_build_reestimate_html</text>

<!-- Row 3: _build_story_html (under epics) + _build_scorecard_html (under metrics) -->
<rect x="156" y="300" width="112" height="28" rx="4" fill="#1a1a1a" stroke="#444" stroke-width="0.5"/>
<text x="212" y="318" font-size="10" fill="#aaa" text-anchor="middle">_build_story_html</text>

<rect x="28"  y="300" width="114" height="28" rx="4" fill="#1a1a1a" stroke="#444" stroke-width="0.5"/>
<text x="85"  y="318" font-size="10" fill="#aaa" text-anchor="middle">_build_scorecard_html</text>

<!-- Row 4: classify_raid (under _build_story_html) + _pct_color (under scorecard/metrics) -->
<rect x="156" y="370" width="100" height="28" rx="5" fill="#1a1400" stroke="#BA7517" stroke-width="0.5"/>
<text x="206" y="388" font-size="11" fill="#fbbf24" text-anchor="middle">classify_raid</text>

<rect x="28"  y="370" width="80"  height="28" rx="4" fill="#1a1a1a" stroke="#444" stroke-width="0.5"/>
<text x="68"  y="388" font-size="11" fill="#aaa" text-anchor="middle">_pct_color</text>

<!-- ── estimator.py container ──────────────────────────── -->
<rect x="420" y="20" width="240" height="455" rx="12" fill="#1a1a2e" stroke="#534AB7" stroke-width="0.5"/>
<text x="436" y="44" font-size="12" font-weight="600" fill="#AFA9EC" letter-spacing="0.05em">estimator.py</text>

<!-- Row 0: public API -->
<rect x="432" y="54"  width="104" height="32" rx="5" fill="#26215C" stroke="#534AB7" stroke-width="0.5"/>
<text x="484" y="74"  font-size="11" fill="#CECBF6" text-anchor="middle">estimate_project</text>
<rect x="546" y="54"  width="104" height="32" rx="5" fill="#26215C" stroke="#534AB7" stroke-width="0.5"/>
<text x="598" y="74"  font-size="11" fill="#CECBF6" text-anchor="middle">followup_estimate</text>

<!-- Row 1: _call_api -->
<rect x="472" y="124" width="108" height="32" rx="5" fill="#3C3489" stroke="#7F77DD" stroke-width="1"/>
<text x="526" y="144" font-size="13" font-weight="500" fill="#CECBF6" text-anchor="middle">_call_api</text>

<!-- Row 2: auto_correct + validate -->
<rect x="432" y="196" width="104" height="28" rx="5" fill="#1a1a1a" stroke="#444" stroke-width="0.5"/>
<text x="484" y="214" font-size="11" fill="#aaa" text-anchor="middle">auto_correct</text>
<rect x="546" y="196" width="104" height="28" rx="5" fill="#1a1a1a" stroke="#444" stroke-width="0.5"/>
<text x="598" y="214" font-size="11" fill="#aaa" text-anchor="middle">validate_estimate</text>

<!-- Row 3: clean_json + load_prompt -->
<rect x="432" y="264" width="108" height="28" rx="5" fill="#1a1a1a" stroke="#444" stroke-width="0.5"/>
<text x="486" y="282" font-size="10" fill="#aaa" text-anchor="middle">clean_json_response</text>
<rect x="550" y="264" width="96"  height="28" rx="5" fill="#1a1a1a" stroke="#444" stroke-width="0.5"/>
<text x="598" y="282" font-size="11" fill="#aaa" text-anchor="middle">load_prompt</text>

<!-- Row 4: normalise helpers -->
<rect x="432" y="332" width="96"  height="28" rx="5" fill="#1a1a1a" stroke="#444" stroke-width="0.5"/>
<text x="480" y="350" font-size="11" fill="#aaa" text-anchor="middle">normalise_size</text>
<rect x="538" y="332" width="96"  height="28" rx="5" fill="#1a1a1a" stroke="#444" stroke-width="0.5"/>
<text x="586" y="350" font-size="11" fill="#aaa" text-anchor="middle">normalise_hml</text>

<!-- ── Arrows: app.py ───────────────────────────────────── -->
<!-- entry → build_html, build_markdown_report -->
<line x1="170" y1="88"  x2="115" y2="124" stroke="#1D9E75" stroke-width="0.8" marker-end="url(#arrow)"/>
<line x1="230" y1="88"  x2="290" y2="124" stroke="#1D9E75" stroke-width="0.8" marker-end="url(#arrow)"/>

<!-- build_html → all sub-builders -->
<line x1="90"  y1="156" x2="74"  y2="194" stroke="#1D9E75" stroke-width="0.8" marker-end="url(#arrow)"/>
<line x1="100" y1="156" x2="184" y2="194" stroke="#1D9E75" stroke-width="0.8" marker-end="url(#arrow)"/>
<line x1="120" y1="156" x2="291" y2="194" stroke="#1D9E75" stroke-width="0.8" marker-end="url(#arrow)"/>
<line x1="80"  y1="156" x2="76"  y2="232" stroke="#1D9E75" stroke-width="0.8" marker-end="url(#arrow)"/>
<line x1="140" y1="156" x2="303" y2="232" stroke="#1D9E75" stroke-width="0.8" marker-end="url(#arrow)"/>

<!-- _build_epics_html → _build_story_html -->
<line x1="291" y1="222" x2="240" y2="300" stroke="#1D9E75" stroke-width="0.8" marker-end="url(#arrow)"/>

<!-- _build_metrics_html → _build_scorecard_html -->
<line x1="76"  y1="260" x2="85"  y2="300" stroke="#1D9E75" stroke-width="0.8" marker-end="url(#arrow)"/>

<!-- _build_metrics_html → _pct_color -->
<line x1="60"  y1="260" x2="55"  y2="370" stroke="#1D9E75" stroke-width="0.8" marker-end="url(#arrow)"/>

<!-- _build_scorecard_html → _pct_color -->
<line x1="70"  y1="328" x2="62"  y2="370" stroke="#1D9E75" stroke-width="0.8" marker-end="url(#arrow)"/>

<!-- _build_epics_html → classify_raid -->
<line x1="291" y1="232" x2="230" y2="370" stroke="#1D9E75" stroke-width="0.8" marker-end="url(#arrow)"/>
<!-- _build_story_html → classify_raid -->
<line x1="212" y1="328" x2="206" y2="370" stroke="#1D9E75" stroke-width="0.8" marker-end="url(#arrow)"/>

<!-- ── Arrows: estimator.py ─────────────────────────────── -->
<!-- public API → _call_api -->
<line x1="484" y1="86"  x2="510" y2="124" stroke="#7F77DD" stroke-width="0.8" marker-end="url(#arrow)"/>
<line x1="598" y1="86"  x2="544" y2="124" stroke="#7F77DD" stroke-width="0.8" marker-end="url(#arrow)"/>

<!-- followup_estimate → load_prompt -->
<line x1="620" y1="86"  x2="610" y2="264" stroke="#7F77DD" stroke-width="0.8" marker-end="url(#arrow)"/>

<!-- _call_api → auto_correct, validate, clean_json, load_prompt -->
<line x1="506" y1="156" x2="484" y2="196" stroke="#7F77DD" stroke-width="0.8" marker-end="url(#arrow)"/>
<line x1="546" y1="156" x2="598" y2="196" stroke="#7F77DD" stroke-width="0.8" marker-end="url(#arrow)"/>
<line x1="514" y1="156" x2="480" y2="264" stroke="#7F77DD" stroke-width="0.8" marker-end="url(#arrow)"/>
<line x1="536" y1="156" x2="590" y2="264" stroke="#7F77DD" stroke-width="0.8" marker-end="url(#arrow)"/>

<!-- auto_correct → normalise helpers -->
<line x1="466" y1="224" x2="468" y2="332" stroke="#7F77DD" stroke-width="0.8" marker-end="url(#arrow)"/>
<line x1="504" y1="224" x2="572" y2="332" stroke="#7F77DD" stroke-width="0.8" marker-end="url(#arrow)"/>

<!-- ── Cross-module: entry → estimator public API ──────── -->
<path d="M 250 71 Q 340 16 432 71" fill="none" stroke="#555" stroke-width="1" stroke-dasharray="5 3" marker-end="url(#arrow)"/>
<path d="M 260 75 Q 400 10 546 71" fill="none" stroke="#555" stroke-width="1" stroke-dasharray="5 3" marker-end="url(#arrow)"/>

<!-- ── Legend ───────────────────────────────────────────── -->
<rect x="20" y="496" width="640" height="58" rx="8" fill="#111" stroke="#333" stroke-width="0.5"/>
<rect x="36"  y="511" width="12" height="12" rx="2" fill="#085041" stroke="#1D9E75" stroke-width="0.5"/>
<text x="54"  y="521" font-size="11" fill="#888">orchestrator / entry</text>
<rect x="200" y="511" width="12" height="12" rx="2" fill="#26215C" stroke="#534AB7" stroke-width="0.5"/>
<text x="218" y="521" font-size="11" fill="#888">public API</text>
<rect x="330" y="511" width="12" height="12" rx="2" fill="#1a1400" stroke="#BA7517" stroke-width="0.5"/>
<text x="348" y="521" font-size="11" fill="#888">shared classifier</text>
<rect x="480" y="511" width="12" height="12" rx="2" fill="#1a1a1a" stroke="#444" stroke-width="0.5"/>
<text x="498" y="521" font-size="11" fill="#888">internal helpers</text>
<line x1="36"  y1="542" x2="56"  y2="542" stroke="#555" stroke-dasharray="4 3" stroke-width="1"/>
<text x="62"  y="546" font-size="11" fill="#888">cross-module call</text>
<line x1="200" y1="542" x2="220" y2="542" stroke="#1D9E75" stroke-width="1"/>
<text x="226" y="546" font-size="11" fill="#888">intra-module (app)</text>
<line x1="370" y1="542" x2="390" y2="542" stroke="#7F77DD" stroke-width="1"/>
<text x="396" y="546" font-size="11" fill="#888">intra-module (estimator)</text>
</svg>
